<svg version="1.1"
     baseProfile="full"
     width="300" height="200"
     xmlns="http://www.w3.org/2000/svg"
     viewBox="0 0 481.96 162.34">
    <defs>
        <style>
            .cls-1{fill:#272727;}
            .cls-16,.cls-2{fill:#ffabc5;}
            .cls-18,.cls-3{fill:#fffdf5;}
            .cls-4{fill:#c68f7b;}
            .cls-5{fill:#ffb8c7;}
            .cls-6{fill:#fff1d9;}
            .cls-7{fill:#ffdedf;}
            .cls-8{fill:#ef97ac;}
            .cls-9{fill:#daf2ff;}
            .cls-10,.cls-20,.cls-21{fill:#fff;}
            .cls-11{fill:#cc9e36;stroke:#000;}
            .cls-11,.cls-16,.cls-17,.cls-18,.cls-20,.cls-21,.cls-22{stroke-miterlimit:10;}
            .cls-11,.cls-18{stroke-width:0.2px;}
            .cls-12{fill:#628899;}
            .cls-13{opacity:0.39;}
            .cls-14,.cls-17{fill:none;}
            .cls-15{fill:#ef8eb1;}
            .cls-16,.cls-17,.cls-20{stroke:#ef8eb1;}
            .cls-16{stroke-width:0.5px;}
            .cls-17,.cls-20,.cls-21,.cls-22{stroke-width:0.3px;}
            .cls-18{stroke:#c68f7b;}
            .cls-19{fill:#dd8eab;}
            .cls-21,.cls-22{stroke:#d8d8d8;}
            .cls-22{fill:#ededed;}
        </style>
    </defs>
    <g id="Layer_2" data-name="Layer 2">
        <g id="Layer_5" data-name="Layer 5">
            <path class="cls-1" d="M134,55.8s24.25-38.46,22.34-50.57c0,0,.36-1.44-9.17,1.38s-43.49,10.65-43.49,10.65"></path>
            <path class="cls-1" d="M22.08,57.39S.73,17.25,3.53,5.31c0,0-.25-1.45,9.05,2.06S55.16,21.2,55.16,21.2"></path>
        </g>
        <g id="Layer_19" data-name="Layer 19">
            <path class="cls-1" d="M164.66,81.18a80.89,80.89,0,0,1-12,42.55c-.7,1.14-1.43,2.24-2.2,3.33-.11.19-.25.38-.37.56-1.17,1.68-2.4,3.29-3.71,4.88-.49.6-1,1.21-1.49,1.79-1.24,1.45-2.57,2.87-3.92,4.23-.44.44-.89.88-1.35,1.3A81.14,81.14,0,0,1,21,133c-.52-.61-1-1.21-1.47-1.82q-2-2.55-3.78-5.25A81.17,81.17,0,1,1,164.66,81.18Z"></path>
            <path class="cls-2" d="M141.53,119.48l-2.73,1.16a55.83,55.83,0,0,1,8.12,11.16,76.31,76.31,0,0,1-5.46,6.07A45.29,45.29,0,0,0,139,133.3a17.09,17.09,0,0,1,1.1,5.89,81.5,81.5,0,0,1-37.23,20.4H64.16a81.78,81.78,0,0,1-43.69-27.28A47.45,47.45,0,0,1,24.12,126,40.06,40.06,0,0,0,19,130.48q-2-2.58-3.81-5.3a130.29,130.29,0,0,1,13-13.65l97.09-15c1.36,6.94,21.42,22.15,21.42,22.15a38.54,38.54,0,0,1,6.59,4.3c-.82,1.35-1.59,2.64-2.48,3.94A94.88,94.88,0,0,0,141.53,119.48Z"></path>
            <path class="cls-3" d="M84.12,139.11c-13.37,0-36.11-19.1-36.34-19.29-10.73-10.23-13.4-48.51-13.42-48.9,0-.22.6-22,11.81-34.34C55.9,25.84,73,25,78,25c.7,0,1.09,0,1.09,0s1-.05,2.66-.05c4.75,0,16.89.44,26.89,4.55,13.75,5.65,18.7,21.72,19.56,24.89,1.26,4.69-.13,43.21-4.62,53.73-4.17,9.75-15.25,19.79-18.8,22.54-5.51,4.26-17.6,8.23-19.58,8.39-.36,0-.72,0-1.08,0Z"></path>
            <path class="cls-4" d="M81.76,25.07c5.19,0,17,.49,26.85,4.54,13,5.36,18.25,20.19,19.5,24.82s-.2,43.32-4.61,53.67-16.21,20.52-18.77,22.5C99.21,134.87,87,138.82,85.2,139c-.35,0-.71,0-1.08,0-13.49,0-36.28-19.27-36.28-19.27C37,109.42,34.46,70.92,34.46,70.92s.47-21.78,11.79-34.27C56.05,25.83,73.51,25.1,78,25.1c.7,0,1.08,0,1.08,0s1-.05,2.67-.05m0-.2c-1.65,0-2.65.05-2.68.05s-.39,0-1.07,0c-5,0-22.15.84-31.91,11.61C40.22,43,37.32,52,35.91,58.42a72.46,72.46,0,0,0-1.65,12.49A204.62,204.62,0,0,0,36.9,91.5c2.65,14.52,6.29,24.08,10.81,28.39.23.2,23,19.32,36.41,19.32.38,0,.74,0,1.1,0,2-.17,14.11-4.14,19.63-8.41,3.56-2.75,14.66-12.81,18.83-22.59,4.5-10.52,5.89-49.09,4.62-53.79-.85-3.17-5.82-19.28-19.61-25-10-4.12-22.17-4.56-26.93-4.56Z"></path>
            <path class="cls-5" d="M84,131a8.86,8.86,0,0,1-1.9-.2,16.86,16.86,0,0,1-11.38-11.22l0-.08.08,0a51.06,51.06,0,0,1,19.37-3.81A46.84,46.84,0,0,1,96,116H96l0,.06c0,.09,2.62,9-3.66,12.37C92.34,128.46,88.11,131,84,131Z"></path>
            <path class="cls-4" d="M90.11,115.74a47.24,47.24,0,0,1,5.83.36s2.67,8.86-3.61,12.25c0,0-4.2,2.54-8.37,2.54a8.52,8.52,0,0,1-1.88-.2,16.64,16.64,0,0,1-11.3-11.15,50.53,50.53,0,0,1,19.33-3.8m0-.2a51.31,51.31,0,0,0-19.42,3.82l-.15.07,0,.17A17,17,0,0,0,82,130.89a9.12,9.12,0,0,0,1.92.2c4.18,0,8.43-2.55,8.47-2.57,6.35-3.43,3.73-12.39,3.7-12.48l0-.12-.13,0a47.4,47.4,0,0,0-5.86-.36Z"></path>
            <path class="cls-6" d="M119,110.88a43.53,43.53,0,0,1-5.7,9.28c-4.21.28-13.25-.38-9.91-.43,2.59,0,6.08-2.85,8.36-5,1.53-1.39,1.76-3.32,1.91-5.37l1-5.13-8.12,2.49,6.64-17.82,1.93-8.8-9.13-7L91.85,59.78,89.22,84.1l-4-5.35.92,7.37C79.79,89.72,65.54,69,65.21,68.51l-1,4,1.13,15.29c-12.87-15-11.93-26.55-10.68-31.35L40.35,97.16l1.7,24c-9.77-12-12.13-47.42-12.13-47.42S30.3,56.6,38.26,44a32.46,32.46,0,0,1,3.46-4.59,29.44,29.44,0,0,1,7.53-5.86c11.34-6.28,25.3-5.65,25.3-5.65S91,27,104.07,32.41s18.26,20.17,19.51,24.81S123.37,100.55,119,110.88Z"></path>
            <path class="cls-7" d="M74.55,103s3.27-2.81,4.78-2.84,4.91.74,5.35,1.63c.59,1.17,1.47,5.55-.51,6.85,0,0-4.49,3.23-8.42.5C75.75,109.1,71.46,107,74.55,103Z"></path>
            <path class="cls-8" d="M90.3,119.4a29,29,0,0,0,3.12,3.47,6.42,6.42,0,0,0,3-4.17l-.29-1.92s-10.84-3.37-24.75,3.86a22.07,22.07,0,0,0,.8,2.62l3-1.32,2.12-.62,1.1-.28.86-.21.79-.19,2.1-.37,2.11-.29,1.5-.2,1.3-.2,1.41-.2Z"></path>
            <path class="cls-9" d="M57.12,85.11S44.5,91.26,55.85,104.8c0,0,3,3.12,6.71,2s3.36-12.77,3.36-12.77.26-7.07-5.43-10.16Z"></path>
            <polygon class="cls-1" points="79.1 108.64 78.84 110.36 80.33 110.59 79.1 108.64"></polygon>
            <path class="cls-10" d="M89.82,117.88a28.65,28.65,0,0,0,3.27,2.92s2.56-1.7,3-4l-.08-.62S84.93,114,70.88,119.6a4.88,4.88,0,0,0,.49,1l3.07-1,2.15-.47,2.8-.5,2.13-.25,2.16-.19,1.52-.13,1.33-.14,1.44-.13Z"></path>
            <polygon class="cls-11" points="53.33 100.22 53.64 100.67 64.62 100.08 64.79 99.52 53.23 100.08 53.33 100.22"></polygon>
            <path class="cls-10" d="M60.59,84.13S47,84,45.74,92.27c-.61,4.15-.62,11.9.91,14.27s11.64,1,14.78.67c2.49-.29,5.09-2,5.1-7.93s0-9.15-4.8-14.55Z"></path>
            <path class="cls-10" d="M112.79,85a10.19,10.19,0,0,1,3.52,8.82s-1.87,11.3-5.9,11.09a29.74,29.74,0,0,1-7.13-1.52,9.61,9.61,0,0,1-3.69-2.19,19.19,19.19,0,0,1-5.43-9.45,9.46,9.46,0,0,1,4-10.26C101.22,79.62,106,79.21,112.79,85Z"></path>
            <ellipse class="cls-9" cx="103.04" cy="91.04" rx="8.22" ry="12.06" transform="translate(-10.14 12.96) rotate(-6.86)"></ellipse>
            <path class="cls-10" d="M59.54,84.68A18,18,0,0,0,54,87.59s3.2,7.31,10,5l-.24-1.24S62.61,84.31,59.54,84.68Z"></path>
            <ellipse class="cls-9" cx="57.68" cy="95.89" rx="8.22" ry="12.06" transform="translate(-7.52 4.95) rotate(-4.61)"></ellipse>
            <path class="cls-12" d="M49.74,98.45s6-3.44,16.14-1.16c0,0,.8-11.76-8.2-12.63C57.68,84.66,47.27,83.21,49.74,98.45Z"></path>
            <path class="cls-12" d="M95.15,94.07s6-3.44,16.14-1.16c0,0,.8-11.75-8.2-12.62C103.09,80.29,92.68,78.83,95.15,94.07Z"></path>
            <ellipse cx="57.73" cy="96.49" rx="3.38" ry="4.38" transform="translate(-11.11 7.59) rotate(-6.86)"></ellipse>
            <ellipse cx="103.18" cy="92.22" rx="3.38" ry="4.38" transform="translate(-10.28 12.99) rotate(-6.86)"></ellipse>
            <ellipse class="cls-10" cx="58.34" cy="89.86" rx="6.16" ry="5.24"></ellipse>
            <ellipse class="cls-10" cx="103.83" cy="85.23" rx="6.16" ry="5.24"></ellipse>
            <path d="M92.55,83.56s5.43-6.37,15.26-4.41c0,0,2.76.29,3.89-1.87,0,0-.72,3-1.34,3.06s2.73,3.08,3.4,3,1.95.36,2.59-.8c0,0-.62,2.3-1.06,2.57s2.1,4.58,2.17,5.06.35,12.57-5.58,13.87c0,0,8.62-12.88-.67-20.09s-16-.17-16-.17S93.5,86.1,93.69,87Z"></path>
            <path class="cls-7" d="M48.44,108s6.14-3.6,11.6-.37a5.64,5.64,0,0,1-.08,7.54s-7.42,3.84-11.12-2.76C48.84,112.42,46.64,108.82,48.44,108Z"></path>
            <path class="cls-7" d="M104.14,110.73s-2.3-5.32,5.63-7.22c0,0,6.19-1,5.72,3.26s-3.73,7.61-6.3,7.57C109.19,114.34,106,114.66,104.14,110.73Z"></path>
            <path class="cls-2" d="M66.2,18.35,26.49,56.09S13.27,95.86,22.3,109.47h0L25.93,94.6s-6.14,16.68,18.64,30.49c.4.23-.07-3.31-.07-3.31L42.66,95.86,56.51,56.55s-3.54,17,11.94,30L66.57,71.22l.49-6s4.31,13.64,21.35,19.61h0L88,78l-.44-.56,4,5.33,2-16,.74-9.21,5.09,6.37,8.69,8.57,9.35,6.36-1.92,8.78-6.63,17.82,1.9-.3,1.78-.57L117,103l-1,5.14a10.53,10.53,0,0,1-2.21,5.3c-1.9,2.47-7.77,5-7.77,5-.41.68,6.79,1.76,11.57.14,1.48-.5-4.68,15-4.68,15s11-1.21,19.24-29.74,4.11-20.14,4.11-20.14L136,71.23l2-1.45-2.41-6.19,3.79-4.79-7.17-1.89s-9.06-36.18-37-40.14c-16.69-2.37-27.11,1-27.11,1S55,20.3,46.62,28.46,27.18,50.24,26.49,56.09Z"></path>
            <g class="cls-13">
                <path d="M126.14,93.49a59.71,59.71,0,0,1,.68,8.23,33.54,33.54,0,0,1-.25,4.13,10,10,0,0,1-1.18,3.93,11.28,11.28,0,0,0,1-4,33.17,33.17,0,0,0,.19-4.11A78.15,78.15,0,0,0,126.14,93.49Z"></path>
            </g>
            <path class="cls-2" d="M51.38,24.71l-42-12.47S25.87,52.5,26.82,57.72,51.19,24.77,51.19,24.77Z"></path>
            <line class="cls-2" x1="50.89" y1="72.49" x2="49.74" y2="72.49"></line>
            <line class="cls-14" x1="140.82" y1="43.07" x2="156.24" y2="50.08"></line>
            <polygon class="cls-2" points="13.53 24.84 9.35 13.29 12.51 14.75 17.1 19.61 21.8 44.69 13.53 24.84"></polygon>
            <path class="cls-2" d="M10.4,52.44c2.44-2.25,8.77-7.65,8.77-7.65l2.4-2,.38-.33,1.72,4.62a15.18,15.18,0,0,0,1,2.25c1.3,1.15,2.08-2.53,4.28-.44,0,.06.09.06.13.12s.25.23.33.29l0,.05a1.56,1.56,0,0,1,.29.28c.71.63,1.29,1.24,1.79,1.7a2,2,0,0,1,.29.28c.41.4.7.68.83.79.23.32,1.14,6.26,2.15,14.26,0,0,0,0,0,.1,1.38,10.62,3.12,24.76,4.25,33.87.64,5.52,1.08,9.19,1.08,9.19l-1.52.3,0,0h-.2l-3.13.62s-1.85.57-9.42,3.8v0h-.05c-3.35,1.43-7.83,3.37-13.7,6-.41-.78-.81-1.55-1.17-2.32A70.56,70.56,0,0,1,8,111.87l-.07-.2c3.25-2.31,5.72-3.88,7-4.64l1-.61c-9.09-5.11-3.92-30.77-4-30.31,0,0,.29.33-.13.55-1.09.64-3.35,1.72-5.45,2.74l-.31.14c-1.38.64-2.86,1.86-3.67,2.16-.36.19-2,1.12-2.13,1.14a26.43,26.43,0,0,0,2.32-2.31c.06-.09.16-.12.23-.25.24-.34.53-.68.78-1.07a6.91,6.91,0,0,0,.55-.82,6.21,6.21,0,0,0,.62-1c3.05-5,7.57-13.49,10.5-19,.21-.4.41-.8.56-1.15,0,0,.06-.09.07-.13C17.25,54.62,18.07,53,18.07,53a1.57,1.57,0,0,0-.29,0"></path>
            <path class="cls-2" d="M146.66,51.36s6.59,24.6,1.89,42.13c-.64,2.4-.48,5.18-1.15,7.65l-3-9.29a31.25,31.25,0,0,0-3.23,12.8c0,6.34,3.63,13.45,9.39,22.29-.12.18-.42.79-.54,1-1.18,1.7-2.19,3-3.5,4.56-.5.61-1.17,1.15-1.68,1.73-2.05-.28-3.07-.07-3.63-.47-2.1-1.53-23.49-18.71-23.16-19.16s12.14-69.15,12.14-69.15l8.32-4.8c-.45-.19,13,8.23,17.5,9.65C156.41,50.4,146.66,51.36,146.66,51.36Z"></path>
            <path class="cls-15" d="M52,24.89q-11.39-3.16-22.73-6.46L18,15.12l-5.66-1.7c-.95-.29-1.89-.58-2.82-.92l-.18-.07-.1,0s0,0,.1,0,0,.15,0,.24c0,.24.11.47.17.71.14.47.29.93.45,1.4,2.61,7.42,5.6,14.71,8.53,22l2.23,5.48,1.12,2.73c.37.91.77,1.82,1.06,2.76q1,2.79,1.8,5.63c.27,1,.53,1.9.76,2.86.11.48.21,1,.29,1.44a3.83,3.83,0,0,1,0,1.47,3.78,3.78,0,0,0,0-1.46c-.09-.49-.19-1-.31-1.45-.23-1-.51-1.9-.79-2.84-.58-1.88-1.21-3.75-1.86-5.6-.31-.94-.7-1.84-1.08-2.75l-1.13-2.73L18.3,36.8c-3-7.3-6-14.58-8.63-22-.16-.47-.31-.93-.45-1.41-.07-.24-.13-.48-.18-.73s-.09-.21,0-.49a.21.21,0,0,1,.18-.06l.08,0,.08,0,.16.07c.92.33,1.86.62,2.8.92L18,14.88l11.32,3.36Z"></path>
            <path class="cls-16" d="M25.84,57.2S7.2,22,9.35,11.3c0,0-.23-1.29,7.65,1.64S53.06,24.39,53.06,24.39"></path>
            <path class="cls-17" d="M146.8,51.52c-1.2-.33,1.95,4.23,2.61,17.31a7.09,7.09,0,0,1,.14,1l.09.6a68.1,68.1,0,0,1,.6,11.94l-2.5,16.45-.4,2.66-1.67-6.16v0l-1.06-3.91a8.05,8.05,0,0,0-.54,1.25.37.37,0,0,0-.07.14c-.12.21-.19.45-.33.71-.28.85-.68,2-1.06,3.2-1.22,3.91-2.21,9.23-.68,13.51.26.54.45,1.2.75,1.86,0,.14.12.31.19.47a70.44,70.44,0,0,0,7.39,13.86,3.88,3.88,0,0,0,.4.49"></path>
            <path class="cls-17" d="M146.82,51.52h0c-.14,0-.68-.12-.14-.16h0c2.52-.1,7.56-.76,9.54-1,.54-.12.43-.19.43-.19a2.3,2.3,0,0,1-.55-.07,12.84,12.84,0,0,1-2.73-.8c-.85-.33-1.67-.83-2.59-1.26-3.47-2-5.83-3.38-7.55-4.41,0,0-4.1-2.73-4.15-2.73"></path>
            <path class="cls-15" d="M.08,83.14l1.75-1.7h0l.74-.94h0a12.32,12.32,0,0,0,.79-1c.26-.36.48-.73.73-1.09v0l.61-.94h0A99.43,99.43,0,0,0,10.6,67.5c.89-1.69,1.77-3.4,2.63-5.11l2.52-5.17v0a.33.33,0,0,1,.07-.13h0l0,0c.7-1.53,1.38-3,2.1-4.57l.07.12c-2.53,0-5.06-.13-7.59-.19h0l-.05,0,.05,0h0c2.53,0,5.06,0,7.59,0h.13l-.05.12c-.7,1.52-1.37,3.06-2.05,4.59v0c0,.12-.08.15-.06.13h0l0,0-2.48,5.21c-.84,1.73-1.71,3.44-2.63,5.12a99.88,99.88,0,0,1-6,9.86h0l-.64,1h0c-.25.36-.49.74-.76,1.09a10.17,10.17,0,0,1-.84,1h0l-.77.92h0Z"></path>
            <path class="cls-17" d="M8,111.87c3.15-2.28,5.63-3.94,7-4.84l1-.61c-8.57-4.58-4.82-26.06-4.12-29.76a5.54,5.54,0,0,0,.13-.55L6.4,79.4l-.31.14-3.5,2.08v0L.08,83.14"></path>
            <path d="M47.86,82.31a10.52,10.52,0,0,1,4.19-2.52,10,10,0,0,1,2.42-.48,9.57,9.57,0,0,1,2.45.1,14,14,0,0,0-2.43.13,11.11,11.11,0,0,0-2.35.53,13.18,13.18,0,0,0-2.23.94A13.36,13.36,0,0,0,47.86,82.31Z"></path>
            <path d="M98.74,77.16a10.5,10.5,0,0,1,4.84-.72,11,11,0,0,1,2.42.48,10.46,10.46,0,0,1,2.22,1,14.5,14.5,0,0,0-2.29-.81,11.29,11.29,0,0,0-2.38-.41,12.13,12.13,0,0,0-2.41,0A13.1,13.1,0,0,0,98.74,77.16Z"></path>
            <path class="cls-18" d="M119.09,153.54a194.5,194.5,0,0,1-20.51,7.11,79.21,79.21,0,0,1-27.86.66c-1.44-.22-2.88-.48-4.31-.75-8.29-3.06-.81,1.07-26-10.89l27.81-5A1.75,1.75,0,0,0,69.61,143l.18-8.18s1.22.48,3.57,1.62c0,0,.94.38,1,.39a23.62,23.62,0,0,0,2.31.92c.55.14,1.15.29,1.7.47a30.54,30.54,0,0,0,5.58,1,16.64,16.64,0,0,0,4.79-.9s.52-.23.56-.23c2.88-.79,4.73-1.78,6.84-2.5a9.37,9.37,0,0,1,1-.48c.5-.17,1.4-.6,1.7-.7,0,0-2.27,12.55.41,13.67S119.09,153.54,119.09,153.54Z"></path>
            <path class="cls-15" d="M118,64a48.37,48.37,0,0,1,0,10.69,75.35,75.35,0,0,1-1.84,10.55,64.62,64.62,0,0,1-3.41,10.14c-1.33,3.32-2.61,6.65-3.8,10l0,0A6.54,6.54,0,0,0,111,105c.68-.19,1.36-.41,2-.64,1.34-.47,2.66-1,4-1.55l.07,0v.08l-1.55,7.77h0a11.08,11.08,0,0,1-4.06,4.85,22.34,22.34,0,0,1-5.7,2.89v-.11a14.56,14.56,0,0,0,5.88,1,22.88,22.88,0,0,0,5.92-1l.08,0v.08a11.56,11.56,0,0,1-.52,3.93c-.34,1.28-.75,2.54-1.19,3.79-.88,2.48-1.88,4.93-3,7.34l-.1-.12a16.85,16.85,0,0,0,7.57-4.36,29.68,29.68,0,0,0,5.2-7.12c2.83-5.21,4.58-10.91,6.27-16.57.42-1.42.88-2.84,1.37-4.23a31.63,31.63,0,0,0,1-4.31c.47-2.92.75-5.87,1-8.82.42-5.91.59-11.83.6-17.75v-.11l.11,0,2.1-.48-.1.19-2.43-6.19,0-.1.07-.07,6.6-6,.06.24c-.77-.08-1.64-.14-2.46-.2l-2.49-.18-5-.34h-.09l0-.09A124.63,124.63,0,0,0,125.7,43q-3.57-6.76-7.51-13.35h0a41.38,41.38,0,0,0-9.78-7.84,43.62,43.62,0,0,0-11.66-4.6,53,53,0,0,0-12.48-1.46A55.81,55.81,0,0,0,71.79,17h0a56.47,56.47,0,0,0-34.1,20.33A93.72,93.72,0,0,0,27.17,54.68,62.63,62.63,0,0,0,21.36,74h0l-1.22,5.15L21.34,74h0a62.61,62.61,0,0,1,5.78-19.37,93.29,93.29,0,0,1,10.5-17.33A57.27,57.27,0,0,1,71.76,16.9h0a56.85,56.85,0,0,1,12.54-1.33A53.82,53.82,0,0,1,96.81,17a43.87,43.87,0,0,1,11.73,4.6,41.26,41.26,0,0,1,9.83,7.87h0q3.94,6.58,7.53,13.36a123.68,123.68,0,0,1,6.47,13.91l-.12-.09,5,.33,2.5.17c.84.07,1.64.11,2.52.22l.29,0-.23.21-6.6,6,0-.17,2.42,6.2.06.15-.17,0-2.1.48.11-.14c0,5.93-.2,11.85-.63,17.77-.22,3-.5,5.91-1,8.83a30.77,30.77,0,0,1-1,4.35c-.5,1.4-1,2.8-1.37,4.22-1.71,5.66-3.47,11.37-6.32,16.6a29.52,29.52,0,0,1-5.24,7.16,17,17,0,0,1-7.66,4.4l-.17,0,.07-.16c1.08-2.4,2.09-4.85,3-7.33.44-1.24.85-2.49,1.19-3.76a12,12,0,0,0,.52-3.88l.09.06a22.69,22.69,0,0,1-6,1,14.64,14.64,0,0,1-5.93-1l-.15-.06.16,0a22.35,22.35,0,0,0,5.66-2.87,10.91,10.91,0,0,0,4-4.8h0l1.56-7.77.06,0c-1.31.55-2.63,1.07-4,1.54-.67.23-1.35.45-2,.64a6.6,6.6,0,0,1-2.12.31h0v0c1.2-3.37,2.48-6.7,3.82-10a64.59,64.59,0,0,0,3.43-10.13A77,77,0,0,0,118,74.67,49,49,0,0,0,118,64Z"></path>
            <path class="cls-15" d="M44.14,54.71a29.76,29.76,0,0,0-2.76,8.41,60.74,60.74,0,0,0-.89,8.82,93.52,93.52,0,0,0,1.17,17.69q1.34,8.78,2.1,17.64c.51,5.9.87,11.81,1,17.73v.2l-.18-.09a42.23,42.23,0,0,1-7.78-5.2,31.78,31.78,0,0,1-6.19-7,29.23,29.23,0,0,1-3.76-8.56,26,26,0,0,1-.77-9.3l.18.06a23.12,23.12,0,0,0-1.31,3.45q-.56,1.77-1,3.57c-.59,2.4-1.09,4.83-1.53,7.27l0,.11-.08-.08a11.59,11.59,0,0,1-2.84-5.87A33.45,33.45,0,0,1,18.77,97a84.61,84.61,0,0,1,1-13.11c.61-4.34,1.43-8.65,2.37-12.93s2-8.54,3.22-12.75c-1.2,4.22-2.25,8.47-3.19,12.76S20.4,79.58,19.8,83.92A83.32,83.32,0,0,0,18.87,97a33.18,33.18,0,0,0,.69,6.52,11.49,11.49,0,0,0,2.81,5.8l-.1,0c.42-2.44.91-4.87,1.5-7.27.29-1.21.6-2.41,1-3.59A24,24,0,0,1,26.05,95l.24-.48-.06.54a25.79,25.79,0,0,0,.8,9.21,29,29,0,0,0,3.77,8.47A37,37,0,0,0,44.65,124.9l-.18.11c-.06-5.92-.4-11.83-.88-17.73s-1.16-11.78-2-17.64a94.42,94.42,0,0,1-1.11-17.7,59.41,59.41,0,0,1,.92-8.83A29.33,29.33,0,0,1,44.14,54.71Z"></path>
            <path class="cls-15" d="M117.41,78.85A77.21,77.21,0,0,1,106.53,71a75.29,75.29,0,0,1-9.43-9.55A60.14,60.14,0,0,1,93.21,56a51.08,51.08,0,0,1-3.13-5.95A40.64,40.64,0,0,1,88,43.69a36.39,36.39,0,0,1-.8-6.65,36.92,36.92,0,0,0,.94,6.62A41.27,41.27,0,0,0,90.26,50a50.62,50.62,0,0,0,3.16,5.9,59.57,59.57,0,0,0,3.92,5.41,74.07,74.07,0,0,0,9.32,9.59q2.53,2.19,5.23,4.18C113.68,76.4,115.51,77.68,117.41,78.85Z"></path>
            <path class="cls-15" d="M94.32,56.68c-.25,4.36-.55,8.71-1,13.06q-.3,3.26-.69,6.51c-.27,2.17-.56,4.33-1,6.48l-.05.26-.18-.19a35.56,35.56,0,0,1-5-7A43,43,0,0,1,83,67.86a41.25,41.25,0,0,1-1.75-8.44,42,42,0,0,1,.09-8.61,42.14,42.14,0,0,0,5.32,24.83,38.59,38.59,0,0,0,5,7l-.23.07c.44-2.14.74-4.3,1-6.46s.52-4.33.73-6.5Q93.82,63.21,94.32,56.68Z"></path>
            <path class="cls-15" d="M62.62,50.62a56.71,56.71,0,0,0,3,10.88,47.78,47.78,0,0,0,5.17,10,35.5,35.5,0,0,0,7.66,8.19,29.66,29.66,0,0,0,10,5l-.09.08L88,78l.57,6.71v.1l-.11,0a30,30,0,0,1-10.13-4.94,33.65,33.65,0,0,1-7.75-8.22,47.84,47.84,0,0,1-5.11-10.09A51.57,51.57,0,0,1,62.62,50.62Z"></path>
            <path class="cls-15" d="M60,35.43a78.38,78.38,0,0,0-3,13.45,60.85,60.85,0,0,0-.44,13.75,38.5,38.5,0,0,0,3.43,13.26,28.29,28.29,0,0,0,8.6,10.56l-.17.11a73.43,73.43,0,0,1-1.72-12,36,36,0,0,1,1-12,37,37,0,0,0-.88,12,72.9,72.9,0,0,0,1.78,11.94l.07.3-.25-.19A28.33,28.33,0,0,1,59.65,76a38.51,38.51,0,0,1-3.41-13.37,61.29,61.29,0,0,1,.51-13.8A73.47,73.47,0,0,1,60,35.43Z"></path>
            <path class="cls-15" d="M56.51,56.05,52.88,66.43c-1.19,3.47-2.38,6.93-3.53,10.42S47,83.8,46,87.3c-.54,1.75-1.06,3.51-1.52,5.28-.24.89-.49,1.77-.67,2.67a22.39,22.39,0,0,0-.46,2.7,60.85,60.85,0,0,1,2.45-10.71c1-3.51,2.16-7,3.31-10.49s2.4-6.93,3.63-10.38S55.19,59.47,56.51,56.05Z"></path>
            <path class="cls-15" d="M114.19,104a16.15,16.15,0,0,0,4.85-2.65c.76-.52,1.41-1.19,2.12-1.78s1.29-1.33,1.9-2,1.17-1.44,1.7-2.19L126.27,93a42.35,42.35,0,0,0,2.44-5,49.94,49.94,0,0,0,1.92-5.21c.54-1.77,1-3.57,1.4-5.37s.67-3.65.94-5.48l.65-5.52-.5,5.54c-.25,1.84-.6,3.67-.9,5.5s-.83,3.62-1.35,5.41A51.23,51.23,0,0,1,129,88.17a44.55,44.55,0,0,1-2.5,5l-1.55,2.33c-.54.75-1.15,1.46-1.73,2.19s-1.28,1.35-1.93,2a26,26,0,0,1-2.16,1.77A16,16,0,0,1,114.19,104Z"></path>
            <path class="cls-15" d="M24.61,99.85c.47-2.12,1.07-4.21,1.74-6.27.35-1,.72-2.06,1.14-3.06A15.89,15.89,0,0,1,29,87.63a19.76,19.76,0,0,0-1.37,3c-.38,1-.76,2-1.09,3.06C25.85,95.69,25.24,97.77,24.61,99.85Z"></path>
            <path d="M90.88,68.42a60.46,60.46,0,0,1,6.86-.31,65.51,65.51,0,0,1,6.86.34,43,43,0,0,1,6.76,1.26,20.36,20.36,0,0,1,6.26,2.78,23.32,23.32,0,0,0-6.31-2.59,42.59,42.59,0,0,0-6.74-1.16,67.68,67.68,0,0,0-6.83-.43C95.45,68.28,93.17,68.3,90.88,68.42Z"></path>
            <path d="M40.06,77.36A16.92,16.92,0,0,1,44.12,74a24.24,24.24,0,0,1,4.82-2.23,27,27,0,0,1,5.19-1.11c.87-.14,1.76-.12,2.64-.18s1.77,0,2.65.06c-.88,0-1.77,0-2.64.08s-1.76.11-2.62.27A29.78,29.78,0,0,0,49,72a25.71,25.71,0,0,0-4.79,2.15A18.71,18.71,0,0,0,40.06,77.36Z"></path>
            <path class="cls-6" d="M70.13,139.27s12.21,4.64,13.62,4.64,13.93-3.41,13.93-3.41l.21-.12.66-5.53s-12.44,4.65-13.74,4.62c-7.86-.2-14.93-4.31-14.93-4.31v3.9"></path>
            <polygon class="cls-2" points="135.73 57.55 141.15 57.77 138.05 60.84 135.73 57.74 135.73 57.55"></polygon>
            <path d="M67,87.78a15.09,15.09,0,0,0-14.42-4.54,3.84,3.84,0,0,1-3.67-1.9s.7,3,1.28,3.07-2.54,3-3.17,3-1.83.35-2.45-.83c0,0,.6,2.31,1,2.58s-1.94,4.56-2,5-.22,12.56,5.37,13.91c0,0-8.23-12.94.46-20.06s15.1,0,15.1,0,1.6,2.29,1.42,3.18Z"></path>
            <path class="cls-19" d="M27.48,41.88s-10.23-18.24-13-19.72c0,0-1.15,3.29-.95,4.36a30,30,0,0,1-3.22-14.15L33.91,38.9l-5.24,7.87Z"></path>
            <path class="cls-20" d="M42.2,32.6s-8.05-10-11.21-9.21,1.3,9,1.3,9S27.62,34,27.48,36.25a8.72,8.72,0,0,0,1.07,4.37s-3,3.1-2.95,5.47,3.66,4.52,3.66,4.52A78.33,78.33,0,0,1,42.2,32.6Z"></path>
            <path class="cls-19" d="M22.89,107.07s3.15,6.2,0,9.53l-7.71,8.58,3.81,5.3L24.12,126s-3.65,5.12-3.65,6.28a83,83,0,0,0,18.79,16.63L60.56,145l1.95.69,5.76-1.19A2,2,0,0,0,69.43,143l.36-8.12S59,128.74,53.73,124.58l-6-4.46a52.12,52.12,0,0,1-3.47-4.58c0-.3.63,9.46.63,9.46v.45a29.29,29.29,0,0,1-7.29-4.65c-4-3.28-7.11-6.31-9.85-12.41,0,0-2.4-8-1.94-11.9A66.46,66.46,0,0,0,22.89,107.07Z"></path>
            <path class="cls-19" d="M23,106.81l-.48,3.09s.71,3.91,1.18,5.61,3.17-4.11,3.14-4.35-3-4.09-3-4.09Z"></path>
            <path class="cls-19" d="M132.75,104.09s-4.76,14.79-6.26,17c-2,3.07-4.27,7-6.38,8.66s-5.35,3.65-7.46,3.9c0,0,2.57-6.15,2.87-7,0,0,2.8-6.63,1.68-8.15l-6.09,6.67-6,5.41s-5.35,3.61-6.18,3.92c0,0-.75,5.09-.71,5.76a24.64,24.64,0,0,0,.12,5.88,2.2,2.2,0,0,0,1,1.7c.91.46,10.25,3,10.25,3l3.43-.48,7.52,2.69s16.37-8.73,19.51-13.85c0,0-2.65-20.23-6.47-36.81l-.19-.74Z"></path>
            <path class="cls-21" d="M40.13,149.19l18.79-3.83a5,5,0,0,1,3.41.5c5.23,2.88,23.66,11.38,49.39,4.83a4,4,0,0,1,2.47.14l5.5,2.12s-13,8.71-38.76,9.06C80.93,162,62,162.69,40.13,149.19Z"></path>
            <path class="cls-21" d="M55.29,149.48s11.8,5.92,17,6.26"></path>
            <path class="cls-21" d="M95.23,157.56s11.73-.68,13.66-1.82"></path>
            <path class="cls-21" d="M111.94,154.37s3.18-1.72,3.58-3"></path>
            <path class="cls-22" d="M61.18,145.22a11.56,11.56,0,0,1,2.17,0c.61.13.53.25.53.25l-1.35.25Z"></path>
            <path class="cls-22" d="M111.2,150.61a11.6,11.6,0,0,0-2.16-.21c-.62.06-.55.19-.55.19l1.32.39Z"></path>
            <path class="cls-1" d="M206,96.49A12.36,12.36,0,0,1,201,91.34a16.3,16.3,0,0,1-1.76-7.71A16.12,16.12,0,0,1,201,76,12.45,12.45,0,0,1,206,70.81,15.87,15.87,0,0,1,213.8,69a17.31,17.31,0,0,1,5.42.85,12.48,12.48,0,0,1,4.28,2.27l-2.31,5.28A12.47,12.47,0,0,0,214,74.91a6.59,6.59,0,0,0-5.34,2.19q-1.84,2.19-1.84,6.53t1.84,6.55A6.55,6.55,0,0,0,214,92.4a12.47,12.47,0,0,0,7.22-2.48l2.31,5.27a12.49,12.49,0,0,1-4.28,2.28,17.6,17.6,0,0,1-5.42.85A15.76,15.76,0,0,1,206,96.49Z"></path>
            <path class="cls-1" d="M248.9,98,246.34,92H233.68L231.13,98h-7.51L237,69.35h5.92L256.28,98ZM236.08,86.43H244L240,77.26Z"></path>
            <path class="cls-1" d="M260.7,98V75.4h-8.56V69.35h24.67V75.4h-8.56V98Z"></path>
            <path class="cls-1" d="M303.62,81.81V96.13a22.18,22.18,0,0,1-5.07,1.62,29.4,29.4,0,0,1-5.8.57,17.39,17.39,0,0,1-8.09-1.77,12.21,12.21,0,0,1-5.26-5.07,17.62,17.62,0,0,1,0-15.6,12.51,12.51,0,0,1,5.18-5.11A16.42,16.42,0,0,1,292.43,69a20.59,20.59,0,0,1,5.86.81A12.33,12.33,0,0,1,302.73,72l-2.31,5.27a15.72,15.72,0,0,0-3.82-1.86,12.93,12.93,0,0,0-3.89-.57q-3.85,0-5.74,2.15c-1.26,1.43-1.89,3.64-1.89,6.61s.66,5.32,2,6.8,3.32,2.21,6,2.21a18.54,18.54,0,0,0,3.86-.41V86.92h-5V81.81Z"></path>
            <path class="cls-1" d="M308.49,98V69.35H316V98Z"></path>
            <path class="cls-1" d="M346.87,98h-8.2l-4.95-9.12a3.18,3.18,0,0,0-3-1.59h-2.27V98h-7.34V69.35h13.63q5.19,0,7.81,2.25a8.16,8.16,0,0,1,2.61,6.52,8.55,8.55,0,0,1-1.78,5.49,8.82,8.82,0,0,1-5,3,5.81,5.81,0,0,1,3.93,3.2Zm-9.72-17.08a2.86,2.86,0,0,0,1.08-2.51,3,3,0,0,0-1.08-2.58A6.19,6.19,0,0,0,333.6,75h-5.19v6.65h5.19A6.21,6.21,0,0,0,337.15,80.87Z"></path>
            <path class="cls-1" d="M349.83,98V69.35h7.46V91.91h12.17v6Z"></path>
            <path class="cls-1" d="M390.74,96.49a12.4,12.4,0,0,1-5.07-5.15,16.18,16.18,0,0,1-1.76-7.71A16,16,0,0,1,385.67,76a12.49,12.49,0,0,1,5.07-5.14A15.88,15.88,0,0,1,398.51,69a17.36,17.36,0,0,1,5.42.85,12.48,12.48,0,0,1,4.28,2.27l-2.32,5.28a12.45,12.45,0,0,0-7.22-2.48,6.58,6.58,0,0,0-5.33,2.19q-1.84,2.19-1.85,6.53t1.85,6.55a6.54,6.54,0,0,0,5.33,2.22,12.45,12.45,0,0,0,7.22-2.48l2.32,5.27a12.49,12.49,0,0,1-4.28,2.28,17.65,17.65,0,0,1-5.42.85A15.77,15.77,0,0,1,390.74,96.49Z"></path>
            <path class="cls-1" d="M417.47,96.51a12.28,12.28,0,0,1-5-5.11,18.12,18.12,0,0,1,0-15.54,12.23,12.23,0,0,1,5-5.09,17.16,17.16,0,0,1,15.22,0,12.09,12.09,0,0,1,4.95,5.09,16.61,16.61,0,0,1,1.72,7.77,16.43,16.43,0,0,1-1.74,7.77,12.3,12.3,0,0,1-5,5.11,16.82,16.82,0,0,1-15.18,0Zm12.68-6.2Q432,88,432,83.63T430.13,77A6.79,6.79,0,0,0,420,77c-1.22,1.5-1.83,3.73-1.83,6.67s.61,5.18,1.83,6.7a6.78,6.78,0,0,0,10.14,0Z"></path>
            <path class="cls-1" d="M443.78,98V69.35h7.47V98Z"></path>
            <path class="cls-1" d="M475,69.35h7V98h-5.52L463.38,81.6V98h-6.94V69.35h5.44L475,85.7Z"></path>
            <path class="cls-16" d="M35.88,39.68s-18.49-15.06-26.3-28a.23.23,0,0,1,.22-.35l.58,0a19.3,19.3,0,0,1,4.59.87L53.06,24.39S45.15,28.13,35.88,39.68Z"></path>
            <path class="cls-16" d="M131.51,55.14S152.22,21.08,150.7,10.3c0,0,.31-1.27-7.73,1.19s-36.67,9.28-36.67,9.28"></path>
            <path class="cls-19" d="M130.79,39.75s11.3-17.6,14.12-18.91c0,0,1,3.35.69,4.41a30,30,0,0,0,4.05-13.94L124.55,36.4l4.76,8.16Z"></path>
            <path class="cls-20" d="M116.65,29.61s8.63-9.54,11.74-8.53-1.84,8.9-1.84,8.9,4.57,1.87,4.58,4.15a8.76,8.76,0,0,1-1.34,4.3s2.82,3.27,2.63,5.64-3.93,4.3-3.93,4.3A78.76,78.76,0,0,0,116.65,29.61Z"></path>
            <path class="cls-16" d="M122.54,37.06s19.35-13.94,27.92-26.39a.23.23,0,0,0-.2-.36h-.59a19.52,19.52,0,0,0-4.63.59L106.3,20.77S114,25,122.54,37.06Z"></path>
            <path class="cls-8" d="M74.92,126.47s-2.75-3.76,5.15-5.83c0,0-6.64,1.36-7.9,2.62"></path>
            <path class="cls-8" d="M94.77,121.43a3.33,3.33,0,0,1,1,3.15,12.57,12.57,0,0,0,.63-6.15L94.7,121Z"></path>
            <path class="cls-19" d="M73,124.25s-.72-3.75,1.13-4.52l-2.95,1S72.34,123.76,73,124.25Z"></path>
            <path class="cls-19" d="M95.61,118.12a1.46,1.46,0,0,0,.52-1.24,17.61,17.61,0,0,1,.38,3.16S95.7,117.94,95.61,118.12Z"></path>
            <path class="cls-19" d="M105.15,130.6s-5.48,3.21-6.31,3.52c0,0-.62,5.2-.58,5.88"></path>
        </g>
    </g>
</svg>