<svg width="92.839" height="97.846" viewBox="0 0 92.839 97.846"><g id="Group_182" data-name="Group 182" transform="translate(-1193.274 -518)"><path id="Sparkle3" d="M1299.577,548.408c2.349,2.308,7.235,2.824,10.57,3.1h0c-3.521.444-8.053.533-10.436,2.968-2.218,2.263-2.4,6.769-2.793,10.045h0c-.309-3.235-.356-7.516-2.473-9.749-2.378-2.5-7.017-2.8-10.756-3.265h.024c3.635-.283,8.047-.452,10.4-2.9,2.236-2.333,2.491-6.87,2.808-10.325h0C1297.357,541.879,1297.186,546.056,1299.577,548.408ZM1304.558,518h0c-.238,2.592-.428,5.995-2.106,7.744-1.762,1.839-5.071,1.964-7.8,2.176h-.017c2.8.352,6.284.57,8.066,2.452,1.588,1.674,1.623,4.885,1.854,7.311h0c.3-2.459.431-5.839,2.095-7.538,1.788-1.826,5.187-1.892,7.828-2.224h0c-2.5-.208-6.166-.595-7.928-2.328C1304.758,523.829,1304.886,520.7,1304.558,518Zm12.2,14.81h0c-.158,1.728-.286,4-1.4,5.162-1.175,1.226-3.381,1.309-5.2,1.451h-.012c1.871.234,4.189.38,5.378,1.635,1.058,1.116,1.081,3.256,1.236,4.874h0c.2-1.64.287-3.892,1.4-5.025,1.192-1.217,3.457-1.261,5.218-1.484h0c-1.668-.139-4.11-.4-5.285-1.552C1316.895,536.7,1316.981,534.608,1316.762,532.81Zm8.712,12.557h0a4.535,4.535,0,0,1-.7,2.581,4.1,4.1,0,0,1-2.6.725h-.006a4.592,4.592,0,0,1,2.689.817,4.306,4.306,0,0,1,.618,2.436h0a4.562,4.562,0,0,1,.7-2.513c.6-.609,1.73-.631,2.609-.742h0a4.665,4.665,0,0,1-2.646-.774c-.594-.589-.551-1.635-.661-2.531Z" transform="translate(-71.499 0)" fill="#454545"></path><g id="Group_177" data-name="Group 177" transform="translate(1193.274 550.931)"><path id="Path_711" data-name="Path 711" d="M1249.187,718.3a3.409,3.409,0,0,0-1.366-2.431,3.3,3.3,0,0,0-2.661-.393,4.008,4.008,0,0,0-2.333,1.55,4.056,4.056,0,0,0-2.479-.975,3.863,3.863,0,0,0-1.864.469,3.108,3.108,0,0,0-1.557,3.052,4,4,0,0,0,.843,2.015,13.784,13.784,0,0,0,3.276,3.092,13.065,13.065,0,0,0,2.707,1.487c.167.092.312-.065.446-.144a12.783,12.783,0,0,0,1.77-1.575,15.38,15.38,0,0,0,2.557-3.538A4.863,4.863,0,0,0,1249.187,718.3Zm0,0a3.409,3.409,0,0,0-1.366-2.431,3.3,3.3,0,0,0-2.661-.393,4.008,4.008,0,0,0-2.333,1.55,4.056,4.056,0,0,0-2.479-.975,3.863,3.863,0,0,0-1.864.469,3.108,3.108,0,0,0-1.557,3.052,4,4,0,0,0,.843,2.015,13.784,13.784,0,0,0,3.276,3.092,13.065,13.065,0,0,0,2.707,1.487c.167.092.312-.065.446-.144a12.783,12.783,0,0,0,1.77-1.575,15.38,15.38,0,0,0,2.557-3.538A4.863,4.863,0,0,0,1249.187,718.3Zm0,0a3.409,3.409,0,0,0-1.366-2.431,3.3,3.3,0,0,0-2.661-.393,4.008,4.008,0,0,0-2.333,1.55,4.056,4.056,0,0,0-2.479-.975,3.863,3.863,0,0,0-1.864.469,3.108,3.108,0,0,0-1.557,3.052,4,4,0,0,0,.843,2.015,13.784,13.784,0,0,0,3.276,3.092,13.065,13.065,0,0,0,2.707,1.487c.167.092.312-.065.446-.144a12.783,12.783,0,0,0,1.77-1.575,15.38,15.38,0,0,0,2.557-3.538A4.863,4.863,0,0,0,1249.187,718.3Zm0,0a3.409,3.409,0,0,0-1.366-2.431,3.3,3.3,0,0,0-2.661-.393,4.008,4.008,0,0,0-2.333,1.55,4.056,4.056,0,0,0-2.479-.975,3.863,3.863,0,0,0-1.864.469,3.108,3.108,0,0,0-1.557,3.052,4,4,0,0,0,.843,2.015,13.784,13.784,0,0,0,3.276,3.092,13.065,13.065,0,0,0,2.707,1.487c.167.092.312-.065.446-.144a12.783,12.783,0,0,0,1.77-1.575,15.38,15.38,0,0,0,2.557-3.538A4.863,4.863,0,0,0,1249.187,718.3Zm36.532-23.436a3.552,3.552,0,0,0-4.785-1.536l-1.9.979c-.071-.877-.14-1.722-.2-2.509-.8-9.82,6.134-8.881,6.027-10.209-.2-2.433-1.5-6.617-7.352-6.145l-4.354.354c-13.387,5.412-62.23,6.13-71.554,5.793l-2.029.165c-5.856.475-6.463,4.814-6.266,7.251.107,1.329,6.8-.718,7.59,9.1.065.785.134,1.636.2,2.506l-2.025-.655a3.554,3.554,0,1,0-2.195,6.76l4.841,1.569,1.023,12.622c.688,8.492,10.41,20.363,22.93,19.35l35.488-2.875c12.521-1.015,20.205-14.3,19.517-22.785,0,0-.49-6.065-1.021-12.626l4.525-2.333A3.545,3.545,0,0,0,1285.719,694.86Zm-42.254.826a10.363,10.363,0,0,1,2.935-4.619,6.017,6.017,0,0,1,3.119-1.569,3.792,3.792,0,0,1,2.816.642,5.27,5.27,0,0,1,1.63,2.741,11.11,11.11,0,0,1,.406,2.8,16.028,16.028,0,0,1-.546,4.737,12.03,12.03,0,0,1-2.044,4.377,4.744,4.744,0,0,1-2.561,1.764,4.009,4.009,0,0,1-2.073-.073,5.217,5.217,0,0,1-2.728-1.693,6.922,6.922,0,0,1-1.458-3.864A15.389,15.389,0,0,1,1243.465,695.686Zm-12.189-1.446a6.983,6.983,0,0,1,1.881-3.569,3.254,3.254,0,0,1,1.228-.693,4.384,4.384,0,0,1,2.785.195,6.164,6.164,0,0,1,2.481,2.073,12.979,12.979,0,0,1,2.391,6.184,12.5,12.5,0,0,1-.544,5.8,4.435,4.435,0,0,1-2.278,2.632,4.725,4.725,0,0,1-3.094.01,5.627,5.627,0,0,1-2.209-1.429,10.707,10.707,0,0,1-2.567-4.787A13.2,13.2,0,0,1,1231.276,694.24Zm-4.816,21.768a10.578,10.578,0,0,1-3.276-5.31,9.522,9.522,0,0,1-.234-1.852,8.458,8.458,0,0,1,.862-4.364,4.587,4.587,0,0,1,3.061-2.243,3.856,3.856,0,0,1,2.465.45,8.237,8.237,0,0,1,2.406,2.067,13.079,13.079,0,0,1,2.732,5.789,7.572,7.572,0,0,1-.326,4.492,4.512,4.512,0,0,1-2.506,2.368,3.586,3.586,0,0,1-2.3.186A6.948,6.948,0,0,1,1226.461,716.009Zm29.544,11.54a4.559,4.559,0,0,1-2.284,2.019,8.34,8.34,0,0,1-3.628.517,6.2,6.2,0,0,1-2.186-.674,5.565,5.565,0,0,0-3.485-.456,19.811,19.811,0,0,0-4.308,1.651,8.808,8.808,0,0,1-3.6.967,8.282,8.282,0,0,1-4.157-1.029,4.516,4.516,0,0,1-2.006-2.462,7.817,7.817,0,0,1-.025-4.136,18.766,18.766,0,0,1,2.316-5.356,25.114,25.114,0,0,1,6.222-6.929,8.683,8.683,0,0,1,3.37-1.619,3.28,3.28,0,0,1,.847-.057,9.282,9.282,0,0,1,5.283,1.615,19.289,19.289,0,0,1,5.019,5.542,30.781,30.781,0,0,1,2.521,4.458,10.836,10.836,0,0,1,.8,2.536A4.9,4.9,0,0,1,1256.005,727.549Zm7.475-19.909a12.955,12.955,0,0,1-1.2,4.218,9.7,9.7,0,0,1-2.678,3.63,4.352,4.352,0,0,1-3.073.879,5.439,5.439,0,0,1-2.7-1.006,4.953,4.953,0,0,1-1.72-2.954,10.163,10.163,0,0,1-.021-3.862,11.217,11.217,0,0,1,.971-3.13,9.306,9.306,0,0,1,2.9-3.381,6.8,6.8,0,0,1,2.167-1.038,4.079,4.079,0,0,1,2.494.084,4.3,4.3,0,0,1,2.454,2.565A9.047,9.047,0,0,1,1263.48,707.64Zm-15.659,8.224a3.3,3.3,0,0,0-2.661-.393,4.008,4.008,0,0,0-2.333,1.55,4.056,4.056,0,0,0-2.479-.975,3.863,3.863,0,0,0-1.864.469,3.108,3.108,0,0,0-1.557,3.052,4,4,0,0,0,.843,2.015,13.784,13.784,0,0,0,3.276,3.092,13.065,13.065,0,0,0,2.707,1.487c.167.092.312-.065.446-.144a12.783,12.783,0,0,0,1.77-1.575,15.38,15.38,0,0,0,2.557-3.538,4.863,4.863,0,0,0,.661-2.609A3.409,3.409,0,0,0,1247.821,715.864Zm1.366,2.431a3.409,3.409,0,0,0-1.366-2.431,3.3,3.3,0,0,0-2.661-.393,4.008,4.008,0,0,0-2.333,1.55,4.056,4.056,0,0,0-2.479-.975,3.863,3.863,0,0,0-1.864.469,3.108,3.108,0,0,0-1.557,3.052,4,4,0,0,0,.843,2.015,13.784,13.784,0,0,0,3.276,3.092,13.065,13.065,0,0,0,2.707,1.487c.167.092.312-.065.446-.144a12.783,12.783,0,0,0,1.77-1.575,15.38,15.38,0,0,0,2.557-3.538A4.863,4.863,0,0,0,1249.187,718.3Zm0,0a3.409,3.409,0,0,0-1.366-2.431,3.3,3.3,0,0,0-2.661-.393,4.008,4.008,0,0,0-2.333,1.55,4.056,4.056,0,0,0-2.479-.975,3.863,3.863,0,0,0-1.864.469,3.108,3.108,0,0,0-1.557,3.052,4,4,0,0,0,.843,2.015,13.784,13.784,0,0,0,3.276,3.092,13.065,13.065,0,0,0,2.707,1.487c.167.092.312-.065.446-.144a12.783,12.783,0,0,0,1.77-1.575,15.38,15.38,0,0,0,2.557-3.538A4.863,4.863,0,0,0,1249.187,718.3Zm0,0a3.409,3.409,0,0,0-1.366-2.431,3.3,3.3,0,0,0-2.661-.393,4.008,4.008,0,0,0-2.333,1.55,4.056,4.056,0,0,0-2.479-.975,3.863,3.863,0,0,0-1.864.469,3.108,3.108,0,0,0-1.557,3.052,4,4,0,0,0,.843,2.015,13.784,13.784,0,0,0,3.276,3.092,13.065,13.065,0,0,0,2.707,1.487c.167.092.312-.065.446-.144a12.783,12.783,0,0,0,1.77-1.575,15.38,15.38,0,0,0,2.557-3.538A4.863,4.863,0,0,0,1249.187,718.3Zm0,0a3.409,3.409,0,0,0-1.366-2.431,3.3,3.3,0,0,0-2.661-.393,4.008,4.008,0,0,0-2.333,1.55,4.056,4.056,0,0,0-2.479-.975,3.863,3.863,0,0,0-1.864.469,3.108,3.108,0,0,0-1.557,3.052,4,4,0,0,0,.843,2.015,13.784,13.784,0,0,0,3.276,3.092,13.065,13.065,0,0,0,2.707,1.487c.167.092.312-.065.446-.144a12.783,12.783,0,0,0,1.77-1.575,15.38,15.38,0,0,0,2.557-3.538A4.863,4.863,0,0,0,1249.187,718.3Z" transform="translate(-1193.274 -675.404)" fill="#454545"></path></g><line id="Line_36" data-name="Line 36" x1="71.554" y2="5.793" transform="translate(1201.6 551.321)" fill="none"></line></g></svg>